<?xml version="1.0" encoding="UTF-8" standalone="no"?>
<!-- Created with Inkscape (http://www.inkscape.org/) -->

<svg
   version="1.1"
   id="svg1"
   width="256"
   height="256"
   viewBox="80 80 840 820.00001"
   sodipodi:docname="dark_icon.svg"
   inkscape:version="1.4 (86a8ad7, 2024-10-11)"
   inkscape:export-filename="dark_icon.png"
   inkscape:export-xdpi="96"
   inkscape:export-ydpi="96"
   xmlns:inkscape="http://www.inkscape.org/namespaces/inkscape"
   xmlns:sodipodi="http://sodipodi.sourceforge.net/DTD/sodipodi-0.dtd"
   xmlns="http://www.w3.org/2000/svg"
   xmlns:svg="http://www.w3.org/2000/svg">
  <sodipodi:namedview
     id="namedview1"
     pagecolor="#ffffff"
     bordercolor="#000000"
     borderopacity="0.25"
     inkscape:showpageshadow="false"
     inkscape:pageopacity="0.0"
     inkscape:pagecheckerboard="0"
     inkscape:deskcolor="#d1d1d1"
     inkscape:zoom="2"
     inkscape:cx="209.75"
     inkscape:cy="175.25"
     inkscape:window-width="1920"
     inkscape:window-height="1017"
     inkscape:window-x="-8"
     inkscape:window-y="-8"
     inkscape:window-maximized="1"
     inkscape:current-layer="svg1"
     showborder="false"
     borderlayer="false"
     showguides="true" />
  <defs
     id="defs1">
    <inkscape:path-effect
       effect="fill_between_many"
       method="originald"
       linkedpaths="#path1,0,1"
       id="path-effect1"
       is_visible="true"
       lpeversion="0"
       join="true"
       close="true"
       autoreverse="true" />
  </defs>
  <g
     inkscape:groupmode="layer"
     inkscape:label="Moving Colors dark icon"
     id="g1"
     transform="translate(-105.68916,-109.90412)">
    <path
       style="display:inline;fill:#ffffff;fill-opacity:1;stroke-width:1.4327"
       d="m 897.18542,815.60321 c -0.68009,29.47646 -1.34867,32.24228 -8.61384,35.6353 -2.28386,1.06662 -9.99547,-0.53167 -11.93801,-2.4742 -0.55891,-0.55891 -1.02741,-7.23173 -1.04112,-14.8285 l -0.0249,-13.81228 -28.66561,28.66561 -28.66562,28.66562 -5.72828,-0.33735 c -7.21095,-0.42466 -9.28137,-2.49508 -9.70603,-9.70605 l -0.33739,-5.72828 28.53951,-28.5395 c 15.69673,-15.69673 28.24235,-28.83668 27.87913,-29.19989 -0.3632,-0.3632 -6.69231,-0.60153 -14.06469,-0.52958 -7.37238,0.072 -14.14696,-0.61176 -15.05462,-1.51943 -0.90763,-0.90763 -1.57731,-4.31642 -1.4882,-7.57504 0.29124,-10.64956 2.51942,-11.44366 34.84531,-12.41849 23.95891,-0.72253 29.56383,-0.3788 31.89879,1.95616 2.32399,2.324 2.71287,8.02465 2.16557,31.7459 z"
       id="path9"
       inkscape:label="Arrow" />
    <path
       style="display:inline;fill:#ffffff;fill-opacity:1;stroke-width:1.4327"
       d="m 795.36795,849.95518 c 0.68009,-29.47646 1.34867,-32.24229 8.61384,-35.63531 2.28387,-1.06662 9.99547,0.53167 11.93801,2.4742 0.55891,0.55892 1.02741,7.23173 1.04112,14.82851 l 0.0249,13.81228 28.66561,-28.66561 28.66562,-28.66564 5.72827,0.33737 c 7.21096,0.42466 9.28137,2.49507 9.70604,9.70604 l 0.33738,5.72829 -28.5395,28.5395 c -15.69673,15.69673 -28.24235,28.83666 -27.87913,29.19988 0.3632,0.3632 6.6923,0.60153 14.0647,0.52958 7.37238,-0.072 14.14695,0.61177 15.05461,1.51943 0.90763,0.90764 1.57731,4.31643 1.4882,7.57505 -0.29124,10.64954 -2.51943,11.44365 -34.8453,12.41849 -23.95893,0.72252 -29.56385,0.3788 -31.89881,-1.95617 -2.32399,-2.32399 -2.71287,-8.02464 -2.16557,-31.74589 z"
       id="path36"
       inkscape:label="Arrow" />
    <path
       style="display:inline;fill:#55789b;fill-opacity:1;stroke-width:1.4327"
       d="m 826.67135,995.83355 c -1.6298,-0.3379 -4.38533,-2.21289 -6.12335,-4.16698 -2.65875,-2.98925 -3.2956,-5.76935 -4.01467,-17.52537 -0.47002,-7.68491 -1.47843,-14.60567 -2.24081,-15.37957 -1.73422,-1.76022 -26.77598,-11.97554 -29.3568,-11.97554 -1.04561,0 -6.78349,4.63814 -12.75081,10.307 -15.19997,14.43975 -15.45209,14.39885 -34.03707,-5.52159 -15.81354,-16.94986 -19.33882,-21.63036 -19.33882,-25.67601 0,-1.41138 4.68288,-8.2391 10.40641,-15.17269 8.90636,-10.78936 10.22711,-13.07838 9.16246,-15.87973 -0.68419,-1.80021 -3.67389,-9.23649 -6.64372,-16.52503 l -5.39974,-13.25186 -13.3758,-0.83454 c -21.5521,-1.34467 -23.40335,-4.1197 -23.41654,-35.10103 -0.008,-17.31906 0.17671,-18.52179 3.54825,-23.19079 3.5341,-4.894 3.62817,-4.9244 15.24363,-4.9244 13.43712,0 18.33646,-1.51204 20.1804,-6.22824 0.71876,-1.83842 3.22033,-8.09177 5.55898,-13.89635 2.3387,-5.80462 4.25216,-11.96816 4.25216,-13.69681 0,-1.87261 -3.94428,-7.54453 -9.75827,-14.0326 -6.62978,-7.39841 -9.75822,-12.04795 -9.75822,-14.5029 0,-4.06087 22.23762,-29.84041 31.74116,-36.79676 6.99646,-5.12123 8.9466,-4.36163 22.43063,8.73702 l 10.25975,9.96646 14.83285,-5.495 c 8.15809,-3.02225 15.27352,-5.95991 15.81211,-6.52814 0.53856,-0.56825 1.41355,-8.1291 1.94439,-16.80189 1.37568,-22.47508 0.89939,-22.12119 28.95245,-21.50899 27.88249,0.60848 27.71718,0.4823 28.52683,21.77323 0.32766,8.62098 1.22531,15.28066 2.171,16.1097 1.56414,1.37113 28.45985,11.91627 30.39504,11.91716 0.52949,2.2e-4 5.6261,-4.56669 11.32578,-10.14872 5.69968,-5.58198 11.67275,-10.58817 13.27346,-11.12478 4.38135,-1.46881 7.85109,1.14558 24.97178,18.81569 13.48755,13.92038 15.68287,16.84227 15.68287,20.87342 0,2.90319 -1.12068,5.75491 -2.9443,7.49226 -1.61934,1.54272 -6.07677,6.61991 -9.90535,11.28263 l -6.96108,8.47768 5.72328,13.78385 c 3.14777,7.58112 5.72323,14.51001 5.72323,15.39754 0,2.93552 4.72761,4.27308 17.74938,5.02182 18.52709,1.0653 19.36931,1.86662 20.63012,19.62818 0.5549,7.81888 0.5984,19.27515 0.097,25.45843 -0.7709,9.49776 -1.45946,11.75637 -4.43758,14.55524 -3.09064,2.90465 -5.0429,3.31298 -15.83927,3.31298 -9.7421,0 -12.89325,0.5382 -15.08688,2.57673 -1.52498,1.41725 -5.20154,9.20271 -8.17011,17.30107 -2.96856,8.09839 -5.58996,15.16883 -5.82531,15.71215 -0.23525,0.54328 3.59315,5.51277 8.50779,11.04323 16.20827,18.23928 16.17187,19.17386 -1.45821,37.4606 -16.10387,16.70369 -20.61569,20.44879 -24.63513,20.44879 -1.7603,0 -7.86002,-4.56903 -14.76037,-11.05642 -6.46813,-6.08103 -12.09078,-10.88483 -12.49478,-10.67513 -0.40396,0.20975 -7.00764,2.96776 -14.67485,6.12901 -7.66717,3.16122 -14.6666,6.33893 -15.55423,7.06156 -0.96569,0.78619 -1.80553,7.15425 -2.09105,15.85536 -0.42623,12.98979 -0.83777,14.94656 -3.85669,18.33786 -3.33013,3.74082 -3.65664,3.79346 -22.30457,3.59586 -10.40873,-0.11028 -20.25846,-0.47687 -21.88831,-0.81465 z m 39.88407,-71.95548 c 16.30527,-4.05904 28.74304,-11.53775 41.45185,-24.92446 9.24474,-9.7379 12.53164,-14.46255 17.0104,-24.45124 12.80727,-28.56306 12.78078,-54.70888 -0.0832,-82.27169 -10.45011,-22.3904 -31.17069,-40.5507 -54.87264,-48.09247 -9.97936,-3.17537 -36.873,-3.568 -46.7001,-0.68177 -45.8333,13.46126 -74.19687,63.41036 -63.42077,111.68594 7.26909,32.56474 34.09745,60.61409 65.70484,68.69521 10.91668,2.79108 29.78567,2.80974 40.90981,0.0406 z"
       id="path30"
       inkscape:label="Gear" />
    <path
       style="display:inline;fill:#ffffff;fill-opacity:1;stroke-width:1.4327"
       d="m 308.78068,948.62699 -71.97518,-0.39478 -5.87068,-6.72709 -5.87066,-6.72713 0.47698,-214.80793 0.47699,-214.8079 10.31832,-9.99158 c 5.67507,-5.49536 10.85041,-10.21241 11.50077,-10.48235 0.65035,-0.2701 1.18374,80.8978 1.18532,180.37274 0.002,99.475 0.41591,198.25671 0.92074,219.51493 l 0.91789,38.6513 h 212.83965 212.83965 l 1.74063,4.04918 c 0.95734,2.22705 4.19459,7.85159 7.19391,12.499 2.99935,4.64742 5.45334,8.78862 5.45334,9.20271 0,0.71264 -226.08828,0.50494 -382.14767,-0.35095 z"
       id="path31"
       inkscape:label="Window border left" />
    <path
       style="display:inline;fill:#ffffff;fill-opacity:1;stroke-width:1.4327"
       d="m 941.5688,659.86182 -10.74085,-6.82567 -0.0627,-203.55918 -0.0627,-203.55918 -227.98274,-0.37251 -227.98274,-0.3725 10.86199,-12.94683 10.86201,-12.94683 221.65131,0.43117 c 220.05421,0.42805 221.68618,0.45277 226.48119,3.42813 10.01719,6.21586 9.43144,-1.28896 9.9943,128.04938 0.67911,156.05652 0.0554,315.87538 -1.23227,315.66806 -0.57507,-0.0928 -5.87893,-3.23993 -11.78639,-6.99404 z"
       id="path38"
       inkscape:label="Window border right" />
    <path
       style="fill:#ffffff;fill-opacity:1;stroke:#000000;stroke-width:1;stroke-dasharray:none;stroke-opacity:1"
       d="m 105.93316,116.97791 c -2.31568,-4.94154 -4.16235,-11.80782 -4.66592,-17.348866 l -0.3518,-3.870956 1.41728,0.222168 c 0.7795,0.122193 2.76728,0.351746 4.41728,0.510117 4.08044,0.391652 9.71375,2.011818 14.375,4.134317 2.13125,0.97046 3.875,1.83361 3.875,1.9181 0,0.70873 -3.9828,6.63913 -6.34261,9.44416 -2.86339,3.40363 -9.35759,9.26305 -10.26656,9.26305 -0.25063,0 -1.35658,-1.92244 -2.45767,-4.27209 z"
       id="path10"
       transform="matrix(3.28125,0,0,3.28125,185.68916,179.90413)"
       inkscape:label="white" />
    <path
       style="display:inline;fill:#ffff00;stroke:#000000;stroke-width:2.06692;stroke-dasharray:none;stroke-opacity:1"
       d="m 433.86049,606.96762 c -13.01609,-0.97004 -31.86641,-4.99657 -43.53765,-9.29989 -9.39531,-3.46415 -25.46771,-11.2119 -25.46771,-12.27678 0,-1.123 11.11079,-18.54782 15.78449,-24.75453 2.33863,-3.1057 7.76607,-9.3293 12.06098,-13.83019 22.90839,-24.00705 50.81894,-40.03496 83.01592,-47.67263 10.59894,-2.51426 31.42883,-5.3478 32.37291,-4.40377 0.27706,0.27708 0.94608,5.93366 1.48702,12.57049 1.87273,22.97633 7.94124,44.74122 18.12156,64.99339 3.12724,6.22126 5.55285,11.44156 5.39022,11.60074 -0.16277,0.15915 -3.78365,2.14379 -8.04666,4.41031 -27.25552,14.49091 -59.26063,21.04168 -91.18108,18.66286 z"
       id="path6"
       inkscape:label="yellow" />
    <path
       style="display:inline;fill:#00ffff;stroke:#000000;stroke-width:2.06692;stroke-dasharray:none;stroke-opacity:1"
       d="m 668.17589,660.16326 c -43.46637,-5.21353 -82.87688,-25.69018 -109.66236,-56.97767 -7.18409,-8.39155 -13.24656,-16.6585 -12.64402,-17.24165 0.19677,-0.19062 3.36478,-2.55599 7.03977,-5.25646 16.04016,-11.78679 36.77693,-35.00367 46.00823,-51.51083 2.09066,-3.73843 4.22465,-7.05888 4.74218,-7.37874 2.42101,-1.49625 24.79791,16.83767 35.55554,29.13151 23.2087,26.52302 38.78904,61.62215 41.30077,93.04159 0.35556,4.44919 0.89227,10.06592 1.19245,12.4816 l 0.54579,4.39223 -5.48901,-0.15482 c -3.01891,-0.0853 -6.88416,-0.32228 -8.58934,-0.52672 z"
       id="path7"
       inkscape:label="cyan" />
    <path
       style="display:inline;fill:#ff00ff;stroke:#000000;stroke-width:2.06692;stroke-dasharray:none;stroke-opacity:1"
       d="m 590.1496,503.61292 c -18.63968,-9.10623 -37.51301,-14.28933 -60.34053,-16.57097 l -12.28455,-1.22786 0.65929,-8.85485 c 2.64748,-35.558 19.54232,-72.15497 45.9088,-99.44592 10.49797,-10.86608 24.44878,-22.5729 26.8997,-22.5729 1.85196,0 11.93836,21.81056 16.01061,34.62095 8.61119,27.08891 10.09927,56.66685 4.27058,84.88521 -1.77119,8.57484 -6.43658,23.37071 -9.40561,29.82892 l -1.90044,4.13386 z"
       id="path8"
       inkscape:label="magenta" />
    <path
       style="display:inline;fill:#00ff00;fill-opacity:1;stroke:#000000;stroke-width:2.06692;stroke-dasharray:none;stroke-opacity:1"
       d="m 502.30541,829.64782 c -25.24438,-2.46926 -44.88103,-8.04358 -65.07387,-18.47278 -45.65574,-23.58027 -76.96439,-65.29937 -87.9989,-117.25945 -3.39097,-15.96767 -3.43491,-46.24689 -0.0912,-62.81351 2.14921,-10.64828 7.36251,-27.71957 10.52711,-34.47163 l 1.27644,-2.72347 9.44764,4.45021 c 49.90488,23.50715 107.0666,23.12372 155.30738,-1.04181 l 12.55949,-6.29145 5.97557,8.0879 c 15.77029,21.34494 40.92376,41.79957 65.65183,53.38753 18.60921,8.72058 37.00582,13.67543 58.54728,15.7688 l 12.6599,1.23029 v 4.59265 c 0,7.33076 -3.06269,24.59618 -6.29046,35.4612 -13.15048,44.26626 -44.89683,82.17122 -86.21909,102.94509 -25.07542,12.60615 -60.58157,19.664 -86.27917,17.15043 z"
       id="path5"
       inkscape:label="green" />
    <path
       style="display:inline;fill:#0000ff;stroke:#000000;stroke-width:2.06692;stroke-dasharray:none;stroke-opacity:1"
       d="m 689.98643,656.45261 c -0.29443,-2.41568 -0.8095,-8.11264 -1.14441,-12.65989 -1.33081,-18.07074 -8.22296,-41.85484 -17.45612,-60.23911 -9.04223,-18.00421 -17.99192,-30.36689 -32.95468,-45.52213 -8.24218,-8.34819 -13.12535,-12.43505 -27.98485,-23.42135 l -2.79562,-2.06692 3.47362,-8.78442 c 12.16959,-30.77555 15.14565,-66.49136 8.3531,-100.24571 -2.45291,-12.18928 -9.01385,-30.74301 -15.01974,-42.47449 -3.02654,-5.9118 -5.63516,-11.0155 -5.79699,-11.34153 -0.53635,-1.08078 22.88001,-12.1484 32.57582,-15.39678 41.79654,-14.00313 87.3935,-11.05401 126.9594,8.21147 67.9467,33.08474 105.78626,108.5474 91.3742,182.22576 -13.79509,70.52408 -70.79699,124.63569 -141.71226,134.52664 -17.28932,2.41147 -17.23362,2.42022 -17.87147,-2.81154 z"
       id="path4"
       inkscape:label="blue" />
    <path
       style="display:inline;fill:#ff0000;stroke:#000000;stroke-width:2.06692;stroke-dasharray:none;stroke-opacity:1"
       d="m 349.25693,575.95677 c -11.92549,-8.27512 -32.30129,-29.40019 -41.07799,-42.58854 -33.38403,-50.16461 -37.99507,-111.30093 -12.44416,-164.9928 23.25851,-48.87471 66.34641,-82.36525 119.9382,-93.22331 9.9917,-2.02439 14.73427,-2.36212 32.37575,-2.30559 17.34074,0.0556 22.41665,0.44001 31.52055,2.38728 26.75239,5.7222 49.93808,16.42383 70.79208,32.6749 9.86401,7.68683 26.28371,24.58702 32.01763,32.95452 l 4.11417,6.00386 -3.07121,2.22811 c -36.90768,26.77607 -62.01323,65.21986 -70.85852,108.50472 -1.18062,5.77746 -2.40881,14.51217 -2.72932,19.41047 l -0.58269,8.90602 -11.98852,1.21543 c -36.68425,3.71911 -68.61462,17.10344 -96.80508,40.57807 -15.05799,12.53901 -30.18319,30.61336 -39.37939,47.05773 -1.99948,3.57537 -3.75499,6.50071 -3.90113,6.50071 -0.14612,0 -3.7103,-2.39022 -7.92037,-5.31158 z"
       id="path3"
       inkscape:label="red" />
    <circle
       style="fill:none;stroke:#ffffff;stroke-width:7.23423;stroke-dasharray:none;stroke-opacity:1"
       id="path2-8"
       inkscape:label="Circle 3"
       cy="662.26581"
       cx="513.96936"
       r="171.92519" />
    <circle
       style="fill:none;stroke:#ffffff;stroke-width:7.23423;stroke-dasharray:none;stroke-opacity:1"
       id="path2-8-2"
       inkscape:label="Circle 2"
       cy="493.19284"
       cx="684.92169"
       r="171.92519" />
    <circle
       style="fill:none;stroke:#ffffff;stroke-width:7.23423;stroke-dasharray:none;stroke-opacity:1"
       id="path2-8-23"
       inkscape:label="Circle 1"
       cy="439.87274"
       cx="447.15869"
       r="171.92519" />
  </g>
</svg>
