<?xml version="1.0" encoding="UTF-8" standalone="no"?>
<!-- Created with Inkscape (http://www.inkscape.org/) -->

<svg
   version="1.1"
   id="svg1"
   width="950"
   height="256"
   viewBox="80 80 3117.1875 820.00001"
   sodipodi:docname="logo.svg"
   inkscape:version="1.4 (86a8ad7, 2024-10-11)"
   inkscape:export-filename="logo.png"
   inkscape:export-xdpi="96"
   inkscape:export-ydpi="96"
   xmlns:inkscape="http://www.inkscape.org/namespaces/inkscape"
   xmlns:sodipodi="http://sodipodi.sourceforge.net/DTD/sodipodi-0.dtd"
   xmlns="http://www.w3.org/2000/svg"
   xmlns:svg="http://www.w3.org/2000/svg">
  <sodipodi:namedview
     id="namedview1"
     pagecolor="#ffffff"
     bordercolor="#000000"
     borderopacity="0.25"
     inkscape:showpageshadow="false"
     inkscape:pageopacity="0.0"
     inkscape:pagecheckerboard="0"
     inkscape:deskcolor="#d1d1d1"
     inkscape:zoom="2"
     inkscape:cx="220.25"
     inkscape:cy="175.75"
     inkscape:window-width="1920"
     inkscape:window-height="1017"
     inkscape:window-x="-8"
     inkscape:window-y="-8"
     inkscape:window-maximized="1"
     inkscape:current-layer="g1"
     showborder="false"
     borderlayer="false"
     showguides="true" />
  <defs
     id="defs1">
    <inkscape:path-effect
       effect="fill_between_many"
       method="originald"
       linkedpaths="#path1,0,1"
       id="path-effect1"
       is_visible="true"
       lpeversion="0"
       join="true"
       close="true"
       autoreverse="true" />
  </defs>
  <g
     inkscape:groupmode="layer"
     inkscape:label="Moving Colors logo"
     id="g1"
     transform="translate(-105.68916,-109.90412)">
    <path
       style="display:inline;fill:#000000;fill-opacity:1;stroke-width:1.4327"
       d="m 897.18542,815.60321 c -0.68009,29.47646 -1.34867,32.24228 -8.61384,35.6353 -2.28386,1.06662 -9.99547,-0.53167 -11.93801,-2.4742 -0.55891,-0.55891 -1.02741,-7.23173 -1.04112,-14.8285 l -0.0249,-13.81228 -28.66561,28.66561 -28.66562,28.66562 -5.72828,-0.33735 c -7.21095,-0.42466 -9.28137,-2.49508 -9.70603,-9.70605 l -0.33739,-5.72828 28.53951,-28.5395 c 15.69673,-15.69673 28.24235,-28.83668 27.87913,-29.19989 -0.3632,-0.3632 -6.69231,-0.60153 -14.06469,-0.52958 -7.37238,0.072 -14.14696,-0.61176 -15.05462,-1.51943 -0.90763,-0.90763 -1.57731,-4.31642 -1.4882,-7.57504 0.29124,-10.64956 2.51942,-11.44366 34.84531,-12.41849 23.95891,-0.72253 29.56383,-0.3788 31.89879,1.95616 2.32399,2.324 2.71287,8.02465 2.16557,31.7459 z"
       id="path9"
       inkscape:label="Arrow" />
    <path
       style="display:inline;fill:#000000;fill-opacity:1;stroke-width:1.4327"
       d="m 795.36795,849.95518 c 0.68009,-29.47646 1.34867,-32.24229 8.61384,-35.63531 2.28387,-1.06662 9.99547,0.53167 11.93801,2.4742 0.55891,0.55892 1.02741,7.23173 1.04112,14.82851 l 0.0249,13.81228 28.66561,-28.66561 28.66562,-28.66564 5.72827,0.33737 c 7.21096,0.42466 9.28137,2.49507 9.70604,9.70604 l 0.33738,5.72829 -28.5395,28.5395 c -15.69673,15.69673 -28.24235,28.83666 -27.87913,29.19988 0.3632,0.3632 6.6923,0.60153 14.0647,0.52958 7.37238,-0.072 14.14695,0.61177 15.05461,1.51943 0.90763,0.90764 1.57731,4.31643 1.4882,7.57505 -0.29124,10.64954 -2.51943,11.44365 -34.8453,12.41849 -23.95893,0.72252 -29.56385,0.3788 -31.89881,-1.95617 -2.32399,-2.32399 -2.71287,-8.02464 -2.16557,-31.74589 z"
       id="path36"
       inkscape:label="Arrow" />
    <path
       style="display:inline;fill:#55789b;fill-opacity:1;stroke-width:1.4327"
       d="m 826.67135,995.83355 c -1.6298,-0.3379 -4.38533,-2.21289 -6.12335,-4.16698 -2.65875,-2.98925 -3.2956,-5.76935 -4.01467,-17.52537 -0.47002,-7.68491 -1.47843,-14.60567 -2.24081,-15.37957 -1.73422,-1.76022 -26.77598,-11.97554 -29.3568,-11.97554 -1.04561,0 -6.78349,4.63814 -12.75081,10.307 -15.19997,14.43975 -15.45209,14.39885 -34.03707,-5.52159 -15.81354,-16.94986 -19.33882,-21.63036 -19.33882,-25.67601 0,-1.41138 4.68288,-8.2391 10.40641,-15.17269 8.90636,-10.78936 10.22711,-13.07838 9.16246,-15.87973 -0.68419,-1.80021 -3.67389,-9.23649 -6.64372,-16.52503 l -5.39974,-13.25186 -13.3758,-0.83454 c -21.5521,-1.34467 -23.40335,-4.1197 -23.41654,-35.10103 -0.008,-17.31906 0.17671,-18.52179 3.54825,-23.19079 3.5341,-4.894 3.62817,-4.9244 15.24363,-4.9244 13.43712,0 18.33646,-1.51204 20.1804,-6.22824 0.71876,-1.83842 3.22033,-8.09177 5.55898,-13.89635 2.3387,-5.80462 4.25216,-11.96816 4.25216,-13.69681 0,-1.87261 -3.94428,-7.54453 -9.75827,-14.0326 -6.62978,-7.39841 -9.75822,-12.04795 -9.75822,-14.5029 0,-4.06087 22.23762,-29.84041 31.74116,-36.79676 6.99646,-5.12123 8.9466,-4.36163 22.43063,8.73702 l 10.25975,9.96646 14.83285,-5.495 c 8.15809,-3.02225 15.27352,-5.95991 15.81211,-6.52814 0.53856,-0.56825 1.41355,-8.1291 1.94439,-16.80189 1.37568,-22.47508 0.89939,-22.12119 28.95245,-21.50899 27.88249,0.60848 27.71718,0.4823 28.52683,21.77323 0.32766,8.62098 1.22531,15.28066 2.171,16.1097 1.56414,1.37113 28.45985,11.91627 30.39504,11.91716 0.52949,2.2e-4 5.6261,-4.56669 11.32578,-10.14872 5.69968,-5.58198 11.67275,-10.58817 13.27346,-11.12478 4.38135,-1.46881 7.85109,1.14558 24.97178,18.81569 13.48755,13.92038 15.68287,16.84227 15.68287,20.87342 0,2.90319 -1.12068,5.75491 -2.9443,7.49226 -1.61934,1.54272 -6.07677,6.61991 -9.90535,11.28263 l -6.96108,8.47768 5.72328,13.78385 c 3.14777,7.58112 5.72323,14.51001 5.72323,15.39754 0,2.93552 4.72761,4.27308 17.74938,5.02182 18.52709,1.0653 19.36931,1.86662 20.63012,19.62818 0.5549,7.81888 0.5984,19.27515 0.097,25.45843 -0.7709,9.49776 -1.45946,11.75637 -4.43758,14.55524 -3.09064,2.90465 -5.0429,3.31298 -15.83927,3.31298 -9.7421,0 -12.89325,0.5382 -15.08688,2.57673 -1.52498,1.41725 -5.20154,9.20271 -8.17011,17.30107 -2.96856,8.09839 -5.58996,15.16883 -5.82531,15.71215 -0.23525,0.54328 3.59315,5.51277 8.50779,11.04323 16.20827,18.23928 16.17187,19.17386 -1.45821,37.4606 -16.10387,16.70369 -20.61569,20.44879 -24.63513,20.44879 -1.7603,0 -7.86002,-4.56903 -14.76037,-11.05642 -6.46813,-6.08103 -12.09078,-10.88483 -12.49478,-10.67513 -0.40396,0.20975 -7.00764,2.96776 -14.67485,6.12901 -7.66717,3.16122 -14.6666,6.33893 -15.55423,7.06156 -0.96569,0.78619 -1.80553,7.15425 -2.09105,15.85536 -0.42623,12.98979 -0.83777,14.94656 -3.85669,18.33786 -3.33013,3.74082 -3.65664,3.79346 -22.30457,3.59586 -10.40873,-0.11028 -20.25846,-0.47687 -21.88831,-0.81465 z m 39.88407,-71.95548 c 16.30527,-4.05904 28.74304,-11.53775 41.45185,-24.92446 9.24474,-9.7379 12.53164,-14.46255 17.0104,-24.45124 12.80727,-28.56306 12.78078,-54.70888 -0.0832,-82.27169 -10.45011,-22.3904 -31.17069,-40.5507 -54.87264,-48.09247 -9.97936,-3.17537 -36.873,-3.568 -46.7001,-0.68177 -45.8333,13.46126 -74.19687,63.41036 -63.42077,111.68594 7.26909,32.56474 34.09745,60.61409 65.70484,68.69521 10.91668,2.79108 29.78567,2.80974 40.90981,0.0406 z"
       id="path30"
       inkscape:label="Gear" />
    <path
       style="display:inline;fill:#000000;fill-opacity:1;stroke-width:1.4327"
       d="m 308.78068,948.62699 -71.97518,-0.39478 -5.87068,-6.72709 -5.87066,-6.72713 0.47698,-214.80793 0.47699,-214.8079 10.31832,-9.99158 c 5.67507,-5.49536 10.85041,-10.21241 11.50077,-10.48235 0.65035,-0.2701 1.18374,80.8978 1.18532,180.37274 0.002,99.475 0.41591,198.25671 0.92074,219.51493 l 0.91789,38.6513 h 212.83965 212.83965 l 1.74063,4.04918 c 0.95734,2.22705 4.19459,7.85159 7.19391,12.499 2.99935,4.64742 5.45334,8.78862 5.45334,9.20271 0,0.71264 -226.08828,0.50494 -382.14767,-0.35095 z"
       id="path31"
       inkscape:label="Window border left" />
    <path
       style="display:inline;fill:#000000;fill-opacity:1;stroke-width:1.4327"
       d="m 941.5688,659.86182 -10.74085,-6.82567 -0.0627,-203.55918 -0.0627,-203.55918 -227.98274,-0.37251 -227.98274,-0.3725 10.86199,-12.94683 10.86201,-12.94683 221.65131,0.43117 c 220.05421,0.42805 221.68618,0.45277 226.48119,3.42813 10.01719,6.21586 9.43144,-1.28896 9.9943,128.04938 0.67911,156.05652 0.0554,315.87538 -1.23227,315.66806 -0.57507,-0.0928 -5.87893,-3.23993 -11.78639,-6.99404 z"
       id="path38"
       inkscape:label="Window border right" />
    <path
       style="font-size:437.5px;font-family:Yellowtail;-inkscape-font-specification:'Yellowtail, Normal';display:inline;stroke:#f09200;stroke-width:0"
       d="m 1364.583,786.75006 1.709,8.11768 q 0,5.12695 -5.3406,12.17651 -14.0991,18.37158 -45.2881,42.29736 -30.9753,23.71216 -45.7153,23.71216 -14.74,0 -23.0713,-8.54492 -8.3313,-8.75854 -8.3313,-19.86694 0,-13.24463 27.771,-58.53272 41.6565,-67.29126 106.3843,-157.22656 -13.6719,14.09912 -72.6319,76.0498 -130.5236,136.71875 -152.5268,154.87671 -3.6316,2.99073 -10.6812,2.99073 -6.8359,0 -14.5263,-5.5542 -7.6905,-5.76783 -7.6905,-12.81739 v -1.06811 q 0.8545,-8.97217 41.2293,-87.79907 40.3747,-78.82691 67.7185,-125.39673 -40.3748,44.43359 -81.604,99.12109 -78.3997,103.8208 -114.7156,176.87988 -3.2043,6.83594 -7.904,6.83594 -4.6997,0 -13.6719,-2.34985 -18.79884,-5.12695 -18.79884,-17.94434 0,-7.69043 31.40254,-54.90112 31.4026,-47.42432 72.8455,-103.39356 41.4429,-56.18286 85.8765,-108.09326 61.3098,-71.77734 78.8269,-71.77734 2.7771,0 5.3406,1.49536 2.5634,1.28174 3.2043,1.28174 0.6409,0 1.2817,-0.64087 2.7771,-3.41797 10.8948,-3.41797 8.3313,0 16.0217,3.20435 7.9041,3.20434 7.9041,7.26318 0,2.56348 -21.3623,40.802 -71.5637,126.89209 -96.1304,174.31641 23.4986,-28.41187 67.0777,-75.40894 43.7927,-46.99707 91.8579,-93.78051 62.5915,-60.66895 74.768,-60.66895 4.9134,0 12.3902,2.13623 13.2446,3.84522 25.4211,3.84522 3.418,0.64086 5.7678,2.99072 2.5635,2.13623 2.5635,4.48608 0,2.34986 -1.2817,3.84522 -69.4275,92.28515 -117.0655,162.78076 -47.6379,70.4956 -58.7463,95.27588 22.4304,-4.69971 66.864,-53.61939 1.9226,-2.56347 2.7771,-3.41797 0.8545,-0.85449 1.4954,-1.70898 3.6316,-4.27246 5.5542,5.34058 0.8545,5.55419 1.0681,7.90405 0.4272,2.13623 0.6409,4.69971 0.4272,2.34985 0.4272,3.20434 z m 156.1585,-83.95386 q 6.4086,0 13.031,5.76783 6.8359,5.76782 6.8359,17.73071 0,11.74927 -8.3313,30.76172 -8.3313,18.79883 -22.8577,38.45215 -14.5263,19.43969 -32.0434,36.74316 -17.3035,17.08984 -37.5977,28.19824 -20.0805,10.89478 -36.5295,10.89478 -16.449,0 -26.4893,-10.25391 -9.8266,-10.46753 -9.8266,-28.83911 0,-18.58521 8.9721,-41.01562 9.1858,-22.43042 23.4986,-39.52027 14.3127,-17.30347 30.9753,-30.97534 34.8206,-27.98462 61.0962,-27.98462 11.7493,0 17.7307,5.76782 2.1362,1.92261 2.1362,3.41797 v 1.28174 q 2.9908,-0.42725 9.3995,-0.42725 z m -21.576,28.41187 h -1.4953 q -7.4768,0 -7.4768,-10.89478 -15.5945,5.12696 -32.6844,17.94434 -17.0898,12.81738 -30.5481,30.33447 -27.3437,35.03418 -27.771,59.17359 0,11.96289 8.7586,11.96289 8.7585,0 26.062,-11.53565 17.3035,-11.53564 34.1797,-32.89795 17.0898,-21.3623 25.4211,-36.95678 8.545,-15.80811 8.545,-21.36231 0,-5.76782 -2.9908,-5.76782 z m 214.9048,-30.12085 q 0,14.73999 -16.449,43.15185 -16.4489,28.19825 -42.2973,57.25098 -25.6348,29.05274 -54.4739,50.41504 -28.8391,21.14868 -45.0745,21.14868 -8.7585,0 -16.0217,-6.40869 -7.2632,-6.40869 -7.2632,-20.29419 0,-14.09912 13.2447,-44.21997 13.2446,-30.12085 26.062,-50.84228 -11.3221,8.33129 -13.8855,8.33129 -2.3499,0 -6.1951,-5.5542 -3.6316,-5.55419 -3.6316,-8.54492 0,-3.20434 1.0681,-4.6997 42.0838,-46.78345 59.3872,-46.78345 7.2632,0 12.1765,4.27246 4.9134,4.27246 4.9134,10.25391 0,5.98144 -14.5264,34.39331 -14.5264,28.41186 -29.0527,57.4646 -14.5264,28.83911 -14.5264,36.31591 0,1.28174 1.2817,1.28174 5.5542,0 29.9073,-22.00317 24.5666,-22.2168 39.7339,-41.22925 15.1672,-19.01245 26.4892,-38.23852 11.5357,-19.22608 11.5357,-25.20752 0,-5.98145 -2.5635,-9.82666 -2.3499,-4.05884 -2.3499,-8.54493 0,-4.6997 6.1951,-10.2539 6.4087,-5.76783 16.2353,-5.76783 20.0806,0 20.0806,24.13941 z m 120.0562,-70.06836 q 0,12.17651 -11.3221,24.56665 -11.322,12.17651 -23.7121,12.17651 -12.1765,0 -12.1765,-12.81738 0,-12.81738 10.6811,-24.35303 10.8948,-11.74926 23.9258,-11.74926 5.7678,0 9.1858,3.20434 3.418,3.20435 3.418,8.97217 z m -34.607,186.49292 q 0,6.40869 -1.2817,9.18579 -10.4675,21.36231 -33.3252,34.60693 -22.8577,13.03101 -39.7339,13.03101 -16.8762,0 -29.0527,-11.32202 -12.1765,-11.32202 -12.1765,-23.07129 0,-11.74927 11.7492,-34.17969 11.7493,-22.43042 23.4986,-41.44287 11.7492,-19.01245 11.7492,-20.50781 0,-1.70899 -4.4861,-6.40869 -4.2724,-4.69971 -4.2724,-6.83594 0,-2.34985 8.7585,-11.74927 8.9722,-9.61303 21.576,-18.79883 12.8173,-9.39941 19.4397,-9.39941 6.8359,0 12.1765,5.98145 5.3405,5.98144 5.3405,10.89477 0,4.91333 -50.8422,92.49878 -0.6409,1.28174 -3.6316,5.76782 -2.7771,4.27246 -4.4861,7.26319 -1.4954,2.7771 -3.6316,6.83593 -4.2725,8.54493 -4.2725,14.31275 0,7.26318 9.8267,7.26318 9.8267,0 20.2942,-6.62231 10.6811,-6.83594 18.3716,-14.95362 20.0805,-21.57592 22.8576,-21.57592 5.5542,0 5.5542,19.22607 z m 95.7032,15.16724 q 0,9.39941 12.8173,9.39941 6.836,0 17.0899,-6.83594 10.4675,-6.83593 18.7988,-14.95361 22.2168,-22.00317 25.2075,-22.00317 5.5542,0 5.5542,16.02172 0,16.02173 -10.0403,22.00318 -30.548,27.55737 -47.2106,33.53882 -9.3995,3.20434 -20.7215,2.99072 -11.322,-0.21362 -22.4304,-9.82666 -11.1084,-9.61304 -11.1084,-23.28491 0,-13.8855 7.2632,-31.40259 7.2632,-17.51709 14.74,-29.90723 7.6904,-12.60376 18.7988,-29.05273 11.1084,-16.6626 11.7493,-20.72144 l -0.4273,-0.42724 q -7.0495,0.64087 -35.0342,27.77099 -27.771,27.13013 -45.9289,47.2107 -18.158,20.08056 -43.3655,53.61938 -7.0496,9.18579 -11.5356,9.18579 -4.4861,0 -11.9629,-2.7771 -7.6905,-2.99072 -9.3994,-4.27246 -1.709,-1.28174 -1.709,-3.84521 0,-2.56348 1.4953,-6.19507 1.4954,-3.84522 2.9908,-6.19507 1.2817,-2.56348 4.486,-7.69043 3.2044,-5.12695 12.6038,-21.57593 9.613,-16.6626 29.2664,-49.56054 19.6533,-32.89795 23.4985,-39.73389 8.1177,-14.09912 13.2446,-20.50781 9.6131,-12.17652 32.4707,-12.17652 5.127,0 5.127,6.40869 0,10.04029 -18.5852,37.81128 l -8.9722,13.45825 q 36.9568,-41.01562 62.3779,-51.9104 12.3902,-5.34057 22.2168,-5.34057 10.0403,0 15.8081,5.34057 5.9815,5.34058 5.9815,11.9629 0,6.40869 -4.4861,15.59448 -4.4861,8.97217 -9.1858,16.23535 -4.4861,7.04956 -11.9629,17.94433 -7.4768,10.89478 -8.1177,11.9629 -0.6408,0.85449 -3.4179,5.12695 -2.5635,4.05884 -3.8452,5.98144 -1.2818,1.92261 -4.2725,6.83594 -2.9907,4.69971 -4.9133,7.90405 -1.709,3.20435 -4.4861,7.90406 -2.5635,4.6997 -4.2725,8.11767 -1.4953,3.41797 -3.2043,7.47681 -2.9907,7.47681 -2.9907,12.39014 z m 125.8239,-108.94776 q 20.7215,-14.31274 40.5884,-22.00317 19.867,-7.69043 34.3933,-7.69043 14.5264,0 18.5852,8.3313 8.3313,-9.61304 20.7215,-10.25391 3.6316,-0.21362 8.9721,-0.21362 5.3406,0 6.6223,1.49536 1.2818,1.28174 2.3499,5.12695 1.0681,3.84522 1.2817,4.27246 0.2137,0.42725 0.2137,1.49536 0,0.8545 -1.0682,2.34986 -1.0681,1.28174 -2.5634,2.56348 -1.2818,1.28173 -1.4954,1.49536 -47.2107,67.7185 -96.5576,154.44946 50.8423,-45.07446 91.0034,-64.72778 2.5635,-1.28174 4.9133,-1.28174 3.418,0 4.4861,4.48608 1.0681,4.27246 1.0681,12.39014 0,8.11767 -1.0681,10.04028 -0.8545,1.92261 -9.8266,7.69043 -8.9722,5.76782 -23.285,14.95361 -14.3127,9.1858 -30.3344,20.29419 -38.4522,26.70288 -63.2324,56.18287 -32.0435,38.66577 -45.929,62.37793 -5.127,9.18579 -17.3035,9.18579 -24.1394,0 -24.1394,-22.85767 0,-23.28491 22.8577,-47.63794 17.0898,-18.15796 31.4026,-29.6936 14.3127,-11.53565 15.5945,-13.03101 15.8081,-23.71216 42.9382,-67.29126 -23.0713,24.13941 -44.8608,38.45215 -21.576,14.31274 -32.2571,14.31274 -32.6844,0 -32.6844,-27.98462 0,-22.21679 11.3221,-44.86083 11.322,-22.64405 29.0527,-40.37476 17.7307,-17.94434 38.2385,-32.04346 z m 81.3904,-5.5542 q -24.7803,5.34058 -46.5698,17.73072 -21.7896,12.17651 -35.8887,26.27563 -14.0991,13.8855 -24.353,28.62549 -19.2261,27.55737 -19.2261,42.72461 0,3.63159 1.709,3.63159 1.9226,0 8.1177,-3.84521 6.4087,-3.84522 17.9443,-13.03101 11.5357,-9.39941 25.6348,-22.2168 32.6843,-30.12085 72.6318,-79.89502 z m 360.1685,22.85767 q 5.1269,0 5.1269,8.3313 0,8.11767 -3.6316,28.19824 -2.7771,13.45825 -30.7617,38.45215 -33.7524,29.90723 -74.1272,42.72461 -24.353,7.69043 -47.6379,7.69043 -23.0713,0 -42.2974,-19.4397 -19.0124,-19.65332 -19.0124,-46.3562 0,-26.9165 10.6811,-55.54199 10.8948,-28.83911 29.0527,-54.90113 18.3716,-26.27563 43.1519,-50.41504 24.9939,-24.1394 51.9104,-41.87011 26.9165,-17.73072 56.3965,-28.19824 29.48,-10.46753 55.9692,-10.46753 20.9351,0 35.6751,15.16723 7.6904,8.11768 7.6904,20.50781 0,12.17652 -11.9629,30.97535 -11.9629,18.5852 -28.4119,33.96606 -16.2353,15.38086 -33.7524,26.06201 -17.3035,10.68116 -27.771,10.68116 -10.4675,0 -17.9443,-6.4087 -7.4768,-6.62231 -7.4768,-11.74926 0,-5.12696 2.1362,-11.32203 2.3499,-6.19506 5.7678,-6.19506 -0.8545,1.06811 -0.8545,2.13623 0,2.56347 7.2632,2.56347 7.4768,0 24.7803,-13.031 17.3035,-13.03101 31.189,-29.26636 14.0991,-16.23535 14.0991,-24.35303 0,-5.5542 -7.4768,-5.5542 -20.0806,0 -55.542,18.79883 -35.2478,18.58521 -67.5049,48.06519 -32.2571,29.47998 -56.1829,70.06836 -23.7121,40.37475 -23.7121,72.63183 0,13.45825 7.0495,21.57593 7.2632,8.11768 22.0032,8.11768 14.9536,0 35.2478,-8.54493 20.2942,-8.54492 38.4522,-20.93505 18.3715,-12.39014 34.6069,-25.42115 16.2353,-13.031 25.8484,-22.85766 9.8266,-9.82666 10.0403,-11.74927 0.2136,-2.13623 1.9226,-2.13623 z m 159.5764,-38.23853 q 6.4087,0 13.031,5.76783 6.8359,5.76782 6.8359,17.73071 0,11.74927 -8.3313,30.76172 -8.3313,18.79883 -22.8576,38.45215 -14.5264,19.43969 -32.0435,36.74316 -17.3035,17.08984 -37.5976,28.19824 -20.0806,10.89478 -36.5296,10.89478 -16.449,0 -26.4892,-10.25391 -9.8267,-10.46753 -9.8267,-28.83911 0,-18.58521 8.9722,-41.01562 9.1858,-22.43042 23.4985,-39.52027 14.3127,-17.30347 30.9753,-30.97534 34.8206,-27.98462 61.0962,-27.98462 11.7493,0 17.7307,5.76782 2.1363,1.92261 2.1363,3.41797 v 1.28174 q 2.9907,-0.42725 9.3994,-0.42725 z m -21.5759,28.41187 h -1.4954 q -7.4768,0 -7.4768,-10.89478 -15.5945,5.12696 -32.6843,17.94434 -17.0899,12.81738 -30.5481,30.33447 -27.3438,35.03418 -27.771,59.17359 0,11.96289 8.7585,11.96289 8.7586,0 26.062,-11.53565 17.3035,-11.53564 34.1797,-32.89795 17.0899,-21.3623 25.4212,-36.95678 8.5449,-15.80811 8.5449,-21.36231 0,-5.76782 -2.9907,-5.76782 z m 213.8366,-186.2793 q 10.2539,0 17.9444,6.19507 7.904,5.98145 7.904,17.94434 0,11.96289 -13.2446,37.59765 -13.2446,25.42115 -31.8298,52.12403 -18.5853,26.48925 -42.0838,56.39648 -37.1704,47.42432 -71.3501,85.2356 -0.2136,2.56347 -1.9226,9.61303 -1.4954,6.83594 -1.4954,13.8855 0,7.04956 6.4087,12.81738 6.6224,5.5542 16.2354,5.5542 9.613,0 20.5078,-6.83593 11.1084,-6.83594 19.2261,-15.16724 21.3623,-22.00317 26.4892,-22.00317 5.127,0 5.127,15.59448 v 4.27246 q 0,8.3313 -2.9907,12.17651 -17.9444,22.00318 -40.3748,32.89795 -22.4304,10.68115 -42.511,10.68115 -20.0805,0 -30.5481,-12.17651 -10.4675,-12.39014 -10.4675,-33.75244 0,-41.6565 22.2168,-97.83936 22.4304,-56.39648 50.415,-95.91674 63.0188,-89.29444 96.344,-89.29444 z m -9.613,35.46143 q 0,-3.20435 -2.1362,-3.20435 -7.4768,0 -39.3067,42.72461 -31.8298,42.72461 -46.1426,68.14575 -14.0991,25.42115 -26.7028,63.87329 25.2075,-29.90722 69.6411,-93.13964 44.6472,-63.44605 44.6472,-78.39966 z m 90.3625,122.406 q 6.4087,0 13.031,5.76783 6.836,5.76782 6.836,17.73071 0,11.74927 -8.3313,30.76172 -8.3313,18.79883 -22.8577,38.45215 -14.5263,19.43969 -32.0434,36.74316 -17.3035,17.08984 -37.5977,28.19824 -20.0806,10.89478 -36.5295,10.89478 -16.449,0 -26.4893,-10.25391 -9.8267,-10.46753 -9.8267,-28.83911 0,-18.58521 8.9722,-41.01562 9.1858,-22.43042 23.4985,-39.52027 14.3128,-17.30347 30.9754,-30.97534 34.8205,-27.98462 61.0962,-27.98462 11.7492,0 17.7307,5.76782 2.1362,1.92261 2.1362,3.41797 v 1.28174 q 2.9907,-0.42725 9.3994,-0.42725 z m -21.5759,28.41187 h -1.4954 q -7.4768,0 -7.4768,-10.89478 -15.5944,5.12696 -32.6843,17.94434 -17.0898,12.81738 -30.5481,30.33447 -27.3437,35.03418 -27.771,59.17359 0,11.96289 8.7586,11.96289 8.7585,0 26.062,-11.53565 17.3034,-11.53564 34.1797,-32.89795 17.0898,-21.3623 25.4211,-36.95678 8.5449,-15.80811 8.5449,-21.36231 0,-5.76782 -2.9907,-5.76782 z m 106.5979,17.94433 q 50.4151,-57.25097 85.8765,-57.25097 8.7585,0 14.3127,5.34057 5.7678,5.12696 5.7678,13.45826 0,8.3313 -11.9628,27.98462 -11.7493,19.43969 -21.7896,32.89794 -5.3406,6.83594 -12.1765,6.83594 -6.6223,0 -10.4675,-4.91333 -3.6316,-4.91333 -3.6316,-11.53564 0,-14.73999 15.8081,-33.3252 l -0.4273,-0.42724 q -7.0495,0.64087 -35.0342,27.77099 -27.7709,27.13013 -47.4243,48.70606 -19.4397,21.3623 -42.2973,52.12402 -6.6223,9.18579 -11.3221,9.18579 -4.486,0 -11.9628,-2.7771 -7.6905,-2.99072 -9.1858,-4.27246 -1.709,-1.28174 -1.709,-4.27246 0,-2.99072 1.709,-6.83594 1.7089,-4.05884 6.4087,-11.32202 4.486,-7.26318 13.6718,-23.49853 9.3994,-16.23536 29.0528,-49.1333 19.6533,-32.89795 23.4985,-39.73389 8.1177,-14.09912 13.2446,-20.50781 9.6131,-12.17652 32.4707,-12.17652 5.127,0 5.127,6.40869 0,10.04029 -18.5852,37.81128 z m 106.3843,73.69996 -0.2136,3.41796 q 0,5.34058 4.0588,9.1858 4.0588,3.84521 7.4768,3.84521 25.6348,0 45.2881,-7.69043 19.8669,-7.69043 19.8669,-15.38086 0,-3.63159 -7.2631,-6.19507 -7.0496,-2.7771 -24.1394,-6.62231 -16.8763,-4.05884 -24.5667,-6.19507 -7.6904,-2.34985 -12.1765,-4.27246 -4.4861,-1.92261 -9.1858,-5.34058 -10.0403,-7.04956 -10.0403,-20.93506 0,-14.09912 10.2539,-27.77099 10.4675,-13.8855 26.062,-23.71216 15.5945,-9.82666 33.5388,-17.30347 35.4615,-14.73999 59.6009,-14.73999 23.7121,0 29.2663,10.25391 1.709,3.63159 1.709,8.11768 v 1.49536 q 0,11.32202 -4.9133,17.73071 -4.6997,6.40869 -15.1672,11.53564 -10.254,5.12696 -16.449,5.12696 -5.9815,0 -7.6904,-0.85449 -1.4954,-0.8545 -2.5635,-2.13624 -1.0681,-1.49536 -2.7771,-2.13623 -1.4954,-0.64087 -1.4954,-3.20434 0,-2.56348 2.1362,-5.12695 2.1363,-2.7771 2.9908,-5.76783 -14.0992,0.64087 -29.48,6.62232 -15.3809,5.76782 -26.4893,13.031 -10.8947,7.26319 -18.1579,13.8855 -7.2632,6.62232 -7.2632,9.82666 0,2.99072 9.8266,4.91333 44.22,8.75855 58.1055,15.16724 13.8855,6.40869 19.2261,14.52637 5.3406,8.11767 5.3406,14.73999 0,13.67187 -10.8948,25.84838 -10.8948,12.17652 -26.9165,19.86695 -34.3933,16.87622 -60.0281,16.87622 -25.4211,0 -35.2478,-7.90405 -9.613,-7.69043 -9.613,-18.37159 0,-10.68115 5.3405,-19.65332 5.5542,-9.18579 14.0992,-9.18579 8.5449,0 8.5449,4.48609 z"
       id="text9"
       inkscape:label="Moving Colors"
       aria-label="Moving Colors" />
    <text
       xml:space="preserve"
       style="font-style:normal;font-variant:normal;font-weight:normal;font-stretch:normal;font-size:437.5px;font-family:Yellowtail;-inkscape-font-specification:'Yellowtail, Normal';font-variant-ligatures:normal;font-variant-caps:normal;font-variant-numeric:normal;font-variant-east-asian:normal;text-align:start;writing-mode:lr-tb;direction:ltr;text-anchor:start;display:none;fill:#ffffff;stroke:#f09200;stroke-width:0"
       x="1024.4951"
       y="865.57697"
       id="text2"
       inkscape:label="Moving Colors"><tspan
         sodipodi:role="line"
         id="tspan1"
         style="font-style:normal;font-variant:normal;font-weight:normal;font-stretch:normal;font-size:437.5px;font-family:Yellowtail;-inkscape-font-specification:'Yellowtail, Normal';font-variant-ligatures:normal;font-variant-caps:normal;font-variant-numeric:normal;font-variant-east-asian:normal;fill:#000000;stroke-width:0"
         x="1024.4951"
         y="865.57697">Moving Colors</tspan></text>
    <path
       style="display:inline;fill:#ffffff;fill-opacity:1;stroke:#000000;stroke-width:2"
       d=""
       id="path1"
       transform="matrix(1.640625,0,0,1.640625,529.4001,564.63069)"
       inkscape:label="white" />
    <path
       style="display:inline;fill:#ffff00;stroke:#000000;stroke-width:2.06692;stroke-dasharray:none;stroke-opacity:1"
       d="m 433.86049,606.96762 c -13.01609,-0.97004 -31.86641,-4.99657 -43.53765,-9.29989 -9.39531,-3.46415 -25.46771,-11.2119 -25.46771,-12.27678 0,-1.123 11.11079,-18.54782 15.78449,-24.75453 2.33863,-3.1057 7.76607,-9.3293 12.06098,-13.83019 22.90839,-24.00705 50.81894,-40.03496 83.01592,-47.67263 10.59894,-2.51426 31.42883,-5.3478 32.37291,-4.40377 0.27706,0.27708 0.94608,5.93366 1.48702,12.57049 1.87273,22.97633 7.94124,44.74122 18.12156,64.99339 3.12724,6.22126 5.55285,11.44156 5.39022,11.60074 -0.16277,0.15915 -3.78365,2.14379 -8.04666,4.41031 -27.25552,14.49091 -59.26063,21.04168 -91.18108,18.66286 z"
       id="path6"
       inkscape:label="yellow" />
    <path
       style="display:inline;fill:#00ffff;stroke:#000000;stroke-width:2.06692;stroke-dasharray:none;stroke-opacity:1"
       d="m 668.17589,660.16326 c -43.46637,-5.21353 -82.87688,-25.69018 -109.66236,-56.97767 -7.18409,-8.39155 -13.24656,-16.6585 -12.64402,-17.24165 0.19677,-0.19062 3.36478,-2.55599 7.03977,-5.25646 16.04016,-11.78679 36.77693,-35.00367 46.00823,-51.51083 2.09066,-3.73843 4.22465,-7.05888 4.74218,-7.37874 2.42101,-1.49625 24.79791,16.83767 35.55554,29.13151 23.2087,26.52302 38.78904,61.62215 41.30077,93.04159 0.35556,4.44919 0.89227,10.06592 1.19245,12.4816 l 0.54579,4.39223 -5.48901,-0.15482 c -3.01891,-0.0853 -6.88416,-0.32228 -8.58934,-0.52672 z"
       id="path7"
       inkscape:label="cyan" />
    <path
       style="display:inline;fill:#ff00ff;stroke:#000000;stroke-width:2.06692;stroke-dasharray:none;stroke-opacity:1"
       d="m 590.1496,503.61292 c -18.63968,-9.10623 -37.51301,-14.28933 -60.34053,-16.57097 l -12.28455,-1.22786 0.65929,-8.85485 c 2.64748,-35.558 19.54232,-72.15497 45.9088,-99.44592 10.49797,-10.86608 24.44878,-22.5729 26.8997,-22.5729 1.85196,0 11.93836,21.81056 16.01061,34.62095 8.61119,27.08891 10.09927,56.66685 4.27058,84.88521 -1.77119,8.57484 -6.43658,23.37071 -9.40561,29.82892 l -1.90044,4.13386 z"
       id="path8"
       inkscape:label="magenta" />
    <path
       style="display:inline;fill:#00ff00;fill-opacity:1;stroke:#000000;stroke-width:2.06692;stroke-dasharray:none;stroke-opacity:1"
       d="m 502.30541,829.64782 c -25.24438,-2.46926 -44.88103,-8.04358 -65.07387,-18.47278 -45.65574,-23.58027 -76.96439,-65.29937 -87.9989,-117.25945 -3.39097,-15.96767 -3.43491,-46.24689 -0.0912,-62.81351 2.14921,-10.64828 7.36251,-27.71957 10.52711,-34.47163 l 1.27644,-2.72347 9.44764,4.45021 c 49.90488,23.50715 107.0666,23.12372 155.30738,-1.04181 l 12.55949,-6.29145 5.97557,8.0879 c 15.77029,21.34494 40.92376,41.79957 65.65183,53.38753 18.60921,8.72058 37.00582,13.67543 58.54728,15.7688 l 12.6599,1.23029 v 4.59265 c 0,7.33076 -3.06269,24.59618 -6.29046,35.4612 -13.15048,44.26626 -44.89683,82.17122 -86.21909,102.94509 -25.07542,12.60615 -60.58157,19.664 -86.27917,17.15043 z"
       id="path5"
       inkscape:label="green" />
    <path
       style="display:inline;fill:#0000ff;stroke:#000000;stroke-width:2.06692;stroke-dasharray:none;stroke-opacity:1"
       d="m 689.98643,656.45261 c -0.29443,-2.41568 -0.8095,-8.11264 -1.14441,-12.65989 -1.33081,-18.07074 -8.22296,-41.85484 -17.45612,-60.23911 -9.04223,-18.00421 -17.99192,-30.36689 -32.95468,-45.52213 -8.24218,-8.34819 -13.12535,-12.43505 -27.98485,-23.42135 l -2.79562,-2.06692 3.47362,-8.78442 c 12.16959,-30.77555 15.14565,-66.49136 8.3531,-100.24571 -2.45291,-12.18928 -9.01385,-30.74301 -15.01974,-42.47449 -3.02654,-5.9118 -5.63516,-11.0155 -5.79699,-11.34153 -0.53635,-1.08078 22.88001,-12.1484 32.57582,-15.39678 41.79654,-14.00313 87.3935,-11.05401 126.9594,8.21147 67.9467,33.08474 105.78626,108.5474 91.3742,182.22576 -13.79509,70.52408 -70.79699,124.63569 -141.71226,134.52664 -17.28932,2.41147 -17.23362,2.42022 -17.87147,-2.81154 z"
       id="path4"
       inkscape:label="blue" />
    <path
       style="display:inline;fill:#ff0000;stroke:#000000;stroke-width:2.06692;stroke-dasharray:none;stroke-opacity:1"
       d="m 349.25693,575.95677 c -11.92549,-8.27512 -32.30129,-29.40019 -41.07799,-42.58854 -33.38403,-50.16461 -37.99507,-111.30093 -12.44416,-164.9928 23.25851,-48.87471 66.34641,-82.36525 119.9382,-93.22331 9.9917,-2.02439 14.73427,-2.36212 32.37575,-2.30559 17.34074,0.0556 22.41665,0.44001 31.52055,2.38728 26.75239,5.7222 49.93808,16.42383 70.79208,32.6749 9.86401,7.68683 26.28371,24.58702 32.01763,32.95452 l 4.11417,6.00386 -3.07121,2.22811 c -36.90768,26.77607 -62.01323,65.21986 -70.85852,108.50472 -1.18062,5.77746 -2.40881,14.51217 -2.72932,19.41047 l -0.58269,8.90602 -11.98852,1.21543 c -36.68425,3.71911 -68.61462,17.10344 -96.80508,40.57807 -15.05799,12.53901 -30.18319,30.61336 -39.37939,47.05773 -1.99948,3.57537 -3.75499,6.50071 -3.90113,6.50071 -0.14612,0 -3.7103,-2.39022 -7.92037,-5.31158 z"
       id="path3"
       inkscape:label="red" />
    <circle
       style="fill:none;stroke:#000000;stroke-width:7.23423;stroke-dasharray:none;stroke-opacity:1"
       id="path2-8"
       inkscape:label="Circle 3"
       cy="662.26581"
       cx="513.96936"
       r="171.92519" />
    <circle
       style="fill:none;stroke:#000000;stroke-width:7.23423;stroke-dasharray:none;stroke-opacity:1"
       id="path2-8-2"
       inkscape:label="Circle 2"
       cy="493.19284"
       cx="684.92169"
       r="171.92519" />
    <circle
       style="fill:none;stroke:#000000;stroke-width:7.23423;stroke-dasharray:none;stroke-opacity:1"
       id="path2-8-23"
       inkscape:label="Circle 1"
       cy="439.87274"
       cx="447.15869"
       r="171.92519" />
  </g>
</svg>
